<?xml version="1.0" encoding="iso-8859-1"?>
<!-- Generator: Adobe Illustrator 19.0.0, SVG Export Plug-In . SVG Version: 6.00 Build 0)  -->
<svg version="1.1" id="Capa_1" xmlns="http://www.w3.org/2000/svg" xmlns:xlink="http://www.w3.org/1999/xlink" x="0px" y="0px"
	 viewBox="0 0 512 512" style="enable-background:new 0 0 512 512;" xml:space="preserve">
<path style="fill:#6E6B87;" d="M313.008,339v74c0,16.57-59.1,30-132,30s-132-13.43-132-30v-74H313.008z"/>
<path style="fill:#625F78;" d="M283.008,339v93.043c18.744-5.18,30-11.812,30-19.043v-74H283.008z"/>
<ellipse style="fill:#57566B;" cx="181.01" cy="339" rx="132" ry="30"/>
<path style="fill:#4D4C5E;" d="M181.008,309c-5.073,0-10.076,0.067-15,0.194c65.837,1.693,117,14.39,117,29.806
	s-51.163,28.113-117,29.806c4.924,0.127,9.927,0.194,15,0.194c72.902,0,132-13.431,132-30S253.91,309,181.008,309z"/>
<path style="fill:#6E6B87;" d="M313.008,219v74c0,16.57-59.1,30-132,30s-132-13.43-132-30v-74H313.008z"/>
<ellipse style="fill:#57566B;" cx="181.01" cy="219" rx="132" ry="30"/>
<path style="fill:#6E6B87;" d="M313.008,99v74c0,16.57-59.1,30-132,30s-132-13.43-132-30V99H313.008z"/>
<path style="fill:#625F78;" d="M283.008,99v93.043c18.744-5.18,30-11.812,30-19.043V99H283.008z"/>
<ellipse style="fill:#57566B;" cx="181.01" cy="99" rx="132" ry="30"/>
<path style="fill:#4D4C5E;" d="M181.008,69c-5.073,0-10.076,0.067-15,0.194c65.837,1.693,117,14.39,117,29.806
	s-51.163,28.113-117,29.806c4.924,0.127,9.927,0.194,15,0.194c72.902,0,132-13.431,132-30S253.91,69,181.008,69z"/>
<g>
	<circle style="fill:#EC5569;" cx="181.01" cy="484.5" r="20"/>
	<circle style="fill:#EC5569;" cx="181.01" cy="27.5" r="20"/>
</g>
<path style="fill:#6E6B87;" d="M458.617,418.608L458.617,418.608c-5.856,5.856-15.35,5.856-21.206,0l-91.185-91.185l21.206-21.206
	l91.185,91.185C464.472,403.258,464.472,412.752,458.617,418.608z"/>
<circle style="fill:#EC5569;" cx="288.97" cy="248.96" r="109.96"/>
<path style="fill:#CAEEFC;" d="M288.97,328.924c-21.358,0-41.438-8.318-56.541-23.421s-23.42-35.183-23.42-56.541
	c0-21.359,8.318-41.439,23.42-56.542S267.611,169,288.97,169c21.358,0,41.438,8.317,56.542,23.42
	c15.103,15.104,23.421,35.184,23.421,56.542c0,21.357-8.318,41.438-23.421,56.54C330.409,320.605,310.329,328.924,288.97,328.924z"
	/>
<path style="fill:#89CEEA;" d="M345.512,192.42C330.409,177.317,310.329,169,288.97,169c-5.091,0-10.105,0.487-15,1.411
	c15.644,2.954,30.038,10.506,41.542,22.009c15.103,15.104,23.421,35.184,23.421,56.542c0,21.357-8.318,41.438-23.421,56.54
	c-11.503,11.504-25.898,19.057-41.542,22.011c4.895,0.924,9.91,1.411,15,1.411c21.358,0,41.438-8.318,56.542-23.422
	c15.103-15.103,23.421-35.183,23.421-56.54C368.933,227.604,360.614,207.523,345.512,192.42z"/>
<circle cx="91.47" cy="169.75" r="7.5"/>
<circle cx="91.54" cy="148.25" r="7.5"/>
<circle cx="91.47" cy="289.06" r="7.5"/>
<circle cx="91.54" cy="267.56" r="7.5"/>
<circle cx="91.47" cy="408.37" r="7.5"/>
<circle cx="91.54" cy="386.87" r="7.5"/>
<path d="M463.93,392.097L386.421,314.6c13.016-19.236,20.017-41.898,20.017-65.639c0-31.375-12.219-60.872-34.405-83.058
	c-14.816-14.815-32.639-24.831-51.522-30.061V99c0-12.39-14.557-21.722-44.502-28.526c-23.675-5.381-54.511-8.51-87.503-8.923
	v-7.599c11.529-3.273,20.001-13.889,20.001-26.452c0-15.163-12.337-27.5-27.501-27.5s-27.501,12.337-27.501,27.5
	c0,12.563,8.472,23.178,20.001,26.452v7.599c-32.993,0.413-63.828,3.542-87.503,8.923C56.057,77.278,41.5,86.61,41.5,99v74
	c0,9.313,8.227,16.899,25.03,22.982C49.736,202.048,41.5,209.659,41.5,219v37c0,4.143,3.358,7.5,7.5,7.5s7.5-3.357,7.5-7.5v-18.353
	c7.066,3.689,16.651,6.919,28.825,9.724c23.298,5.368,53.758,8.542,86.42,9.048c1.328,21.337,8.344,41.58,20.317,58.968
	c-3.663,0.07-7.351,0.113-11.057,0.113c-30.419,0-59.932-2.426-83.141-6.831c-0.049-0.011-0.1-0.017-0.149-0.027
	c-0.017-0.003-0.034-0.006-0.05-0.009C60.235,301.507,56.516,293,56.501,293v-5.125c0-4.143-3.358-7.5-7.5-7.5s-7.5,3.357-7.5,7.5
	V293c0,9.332,8.221,16.937,24.981,23c-16.76,6.063-24.981,13.668-24.981,23v74c0,12.391,14.557,21.723,44.502,28.527
	c23.675,5.38,54.51,8.509,87.503,8.922v7.599c-11.529,3.273-20.001,13.889-20.001,26.452c0,15.163,12.337,27.5,27.501,27.5
	s27.501-12.337,27.501-27.5c0-12.563-8.472-23.178-20.001-26.452v-7.599c32.993-0.413,63.828-3.542,87.503-8.922
	c29.945-6.805,44.502-16.137,44.502-28.527v-5.063c0-4.143-3.358-7.5-7.5-7.5s-7.5,3.357-7.5,7.5l0.008,4.973
	c-0.018,0.073-3.252,7.629-35.274,14.53c-24.116,5.197-55.808,8.06-89.239,8.06s-65.123-2.862-89.239-8.06
	C59.78,420.547,56.518,413,56.501,413v-55.353c7.197,3.759,17.004,7.041,29.502,9.88c25.461,5.786,59.201,8.973,95.003,8.973
	c38.362,0,74.892-3.755,100.533-10.315c2.464,0.153,4.941,0.239,7.432,0.239c5.583,0,11.105-0.395,16.539-1.155v10.606
	c0,4.143,3.358,7.5,7.5,7.5s7.5-3.357,7.5-7.5v-13.711c12.132-3.36,23.624-8.668,34.102-15.757l77.504,77.511
	c4.384,4.376,10.142,6.564,15.901,6.564c5.762,0,11.526-2.19,15.917-6.573C472.689,415.139,472.689,400.87,463.93,392.097z
	 M193.506,484.5c0,6.893-5.608,12.5-12.5,12.5s-12.5-5.607-12.5-12.5s5.608-12.5,12.5-12.5S193.506,477.607,193.506,484.5z
	 M168.505,27.5c0-6.893,5.608-12.5,12.5-12.5s12.5,5.607,12.5,12.5s-5.608,12.5-12.5,12.5S168.505,34.393,168.505,27.5z M56.501,173
	v-55.363c4.618,2.407,10.313,4.622,17.11,6.659c17.717,5.31,41.713,9.099,69.391,10.96c4.145,0.265,7.708-2.848,7.986-6.98
	c0.278-4.133-2.847-7.708-6.98-7.986c-25.394-1.707-47.534-5.082-64.027-9.76c-17.652-5.007-22.89-9.987-23.454-11.512
	c0.407-0.797,4.912-7.921,35.243-14.458c22.304-4.807,51.092-7.611,81.737-8.006V99c0,4.143,3.358,7.5,7.5,7.5s7.5-3.357,7.5-7.5
	V76.554c30.645,0.395,59.433,3.199,81.737,8.006c30.124,6.492,34.773,13.564,35.233,14.44c-0.46,0.876-5.11,7.948-35.233,14.44
	c-24.117,5.197-55.808,8.06-89.237,8.06c-2.484,0-4.953-0.016-7.403-0.047c-4.118-0.097-7.543,3.259-7.597,7.401
	c-0.054,4.143,3.26,7.543,7.403,7.597c2.515,0.033,5.048,0.049,7.597,0.049c35.802,0,69.542-3.187,95.004-8.974
	c12.497-2.84,22.304-6.122,29.501-9.88v15.073c-35.322-4.981-72.492,6.078-99.6,33.184c-8.816,8.815-16.052,18.789-21.579,29.572
	c-1.111,0.007-2.208,0.024-3.326,0.024c-33.431,0-65.123-2.862-89.239-8.06C59.78,180.547,56.518,173,56.501,173z M56.534,219
	c0.484-0.917,5.635-8.686,39.752-15.362c23.152,4.297,51.605,6.691,81.645,6.845c-3.419,9.892-5.509,20.275-6.181,30.933
	c-30.305-0.482-58.71-3.327-80.638-8.119C61.563,226.84,56.99,219.869,56.534,219z M181.005,361.5
	c-33.431,0-65.123-2.862-89.239-8.06C61.64,346.947,56.994,339.876,56.534,339c0.485-0.917,5.64-8.689,39.78-15.367
	c23.906,4.428,53.895,6.867,84.691,6.867c7.765,0,15.468-0.16,22.975-0.458c0.635,0.665,1.277,1.325,1.93,1.977
	c11.227,11.227,24.328,19.896,38.596,25.726C225.368,360.181,203.552,361.5,181.005,361.5z M281.538,351.158
	c-0.147-0.014-0.294-0.028-0.443-0.033c-24.401-1.843-47.092-12.228-64.577-29.713c-19.353-19.352-30.011-45.082-30.011-72.451
	c0-14.901,3.166-29.313,9.168-42.478c0.145-0.271,0.273-0.551,0.385-0.84c4.993-10.691,11.866-20.542,20.458-29.133
	c19.976-19.975,46.215-29.962,72.454-29.962s52.479,9.987,72.455,29.962c19.353,19.352,30.011,45.082,30.011,72.45
	c0,27.369-10.658,53.1-30.011,72.451c-13.83,13.83-30.918,23.217-49.533,27.45c-0.367,0.055-0.727,0.129-1.075,0.235
	c-7.099,1.534-14.411,2.327-21.847,2.327C286.478,351.424,284,351.333,281.538,351.158z M453.327,413.303
	c-2.925,2.921-7.687,2.92-10.608,0.005l-76.155-76.162c1.866-1.646,3.693-3.351,5.468-5.126s3.479-3.602,5.126-5.468l76.16,76.148
	C456.239,405.625,456.239,410.386,453.327,413.303z"/>
<path d="M350.819,310.806c16.521-16.521,25.619-38.483,25.619-61.844s-9.098-45.324-25.619-61.846
	c-16.52-16.519-38.484-25.616-61.847-25.616s-45.327,9.098-61.847,25.616c-16.52,16.52-25.618,38.483-25.618,61.846
	c0,23.361,9.098,45.325,25.618,61.845c16.521,16.52,38.485,25.617,61.847,25.617C312.334,336.424,334.299,327.325,350.819,310.806z
	 M216.507,248.962c0-19.355,7.538-37.553,21.224-51.238c13.687-13.687,31.884-21.224,51.24-21.224
	c19.356,0,37.553,7.537,51.24,21.223c13.687,13.688,21.225,31.885,21.225,51.239s-7.538,37.55-21.225,51.236
	c-13.688,13.688-31.885,21.226-51.24,21.226c-19.355,0-37.553-7.538-51.24-21.225C224.045,286.514,216.507,268.316,216.507,248.962z
	"/>
<g>
</g>
<g>
</g>
<g>
</g>
<g>
</g>
<g>
</g>
<g>
</g>
<g>
</g>
<g>
</g>
<g>
</g>
<g>
</g>
<g>
</g>
<g>
</g>
<g>
</g>
<g>
</g>
<g>
</g>
</svg>
