<svg enable-background="new 0 0 36 36" height="512" viewBox="0 0 36 36" width="512" xmlns="http://www.w3.org/2000/svg"><g id="BG"><g><path d="m34.904 20.355c-3.782-5.791-3.38-11.727-5.203-14.518s-7.256-7.603-20.093.782-9.572 17.5-7.566 20.569c9.388 14.372 39.561 3.423 32.862-6.833z" fill="#efefef"/></g></g><g id="Effect"><g><g><path d="m3.555 2.967h1v2h-1z" fill="#a4afc1" transform="matrix(.707 -.707 .707 .707 -1.617 4.03)"/></g><g><path d="m2.879 7.533h2v1h-2z" fill="#a4afc1" transform="matrix(.707 -.707 .707 .707 -4.544 5.096)"/></g><g><path d="m6.945 3.467h2v1h-2z" fill="#a4afc1" transform="matrix(.707 -.707 .707 .707 -.478 6.78)"/></g></g><g><path d="m16 30.771c-.827 0-1.5-.673-1.5-1.5s.673-1.5 1.5-1.5 1.5.673 1.5 1.5-.673 1.5-1.5 1.5zm0-2c-.276 0-.5.225-.5.5s.224.5.5.5.5-.225.5-.5-.224-.5-.5-.5z" fill="#a4afc1"/></g></g><g id="Color"><g><circle cx="11" cy="13" fill="#f3f3f1" r="1.25"/></g><g><g><g><path d="m19.25 6.75h-6.49-4.01c-1.105 0-2 .895-2 2v8.01 6.49c0 1.105.895 2 2 2h6.49 4.01c1.105 0 2-.895 2-2v-8.01-6.49c0-1.105-.895-2-2-2z" fill="#2fdf84"/></g><g><circle cx="11" cy="13" fill="#f3f3f1" r="1.25"/></g><g><path d="m18.71 15.21c-.39-.39-1.03-.39-1.42 0l-5.29 5.29-1.79-1.79c-.39-.39-1.03-.39-1.42 0l-2.04 2.04v2.5c0 1.105.895 2 2 2h6.49 4.01c1.105 0 2-.895 2-2v-5.25l-2-2.25z" fill="#2fdf84"/></g></g><g><g><path d="m9 23.25v-6.49-8.01c0-1.105.895-2 2-2h-2.25c-1.105 0-2 .895-2 2v8.01 6.49c0 1.105.895 2 2 2h2.25c-1.105 0-2-.895-2-2z" fill="#00b871"/></g><g><g><path d="m14.331 20.669 4.919-4.919-.54-.54c-.391-.391-1.03-.391-1.42 0l-4.54 4.54.919.919c.183.183.479.183.662 0z" fill="#00b871"/></g><g><path d="m8.75 23.75v-2.5l2-2-.54-.54c-.391-.391-1.03-.391-1.42 0l-2.04 2.04v2.5c0 1.105.895 2 2 2h.69c-.42-.367-.69-.899-.69-1.5z" fill="#00b871"/></g></g></g></g><g><g><circle cx="22.5" cy="22.5" fill="#f3f3f1" r="4.75"/></g><g><path d="m20 22.5c0-2.234 1.547-4.094 3.625-4.601-.362-.089-.735-.149-1.125-.149-2.623 0-4.75 2.127-4.75 4.75s2.127 4.75 4.75 4.75c.39 0 .763-.06 1.125-.149-2.078-.507-3.625-2.367-3.625-4.601z" fill="#d5dbe1"/></g></g></g><g id="regular_1.5"><g><path d="m22.5 28c-3.033 0-5.5-2.468-5.5-5.5s2.467-5.5 5.5-5.5 5.5 2.468 5.5 5.5-2.467 5.5-5.5 5.5zm0-9.5c-2.206 0-4 1.794-4 4s1.794 4 4 4 4-1.794 4-4-1.794-4-4-4z"/></g><g><path d="m26.926 25.334h1.5v4.548h-1.5z" transform="matrix(.707 -.707 .707 .707 -11.416 27.656)"/></g><g><path d="m11 15c-1.103 0-2-.897-2-2s.897-2 2-2 2 .897 2 2-.897 2-2 2zm0-2.5c-.276 0-.5.225-.5.5s.224.5.5.5.5-.225.5-.5-.224-.5-.5-.5z"/></g><g><path d="m7.28 21.28-1.06-1.06 2.04-2.04c.685-.684 1.797-.683 2.48 0l1.26 1.26 4.76-4.76c.685-.684 1.797-.683 2.48 0l.541.54-1.061 1.06-.54-.54c-.098-.098-.262-.098-.36 0l-5.29 5.29c-.293.293-.768.293-1.061 0l-1.79-1.79c-.098-.098-.262-.098-.36 0z"/></g><g><path d="m15.24 26h-6.49c-1.517 0-2.75-1.233-2.75-2.75v-14.5c0-1.517 1.233-2.75 2.75-2.75h10.5c1.517 0 2.75 1.233 2.75 2.75v6.49h-1.5v-6.49c0-.689-.561-1.25-1.25-1.25h-10.5c-.689 0-1.25.561-1.25 1.25v14.5c0 .689.561 1.25 1.25 1.25h6.49z"/></g></g></svg>